<svg fill="#000000" xmlns="http://www.w3.org/2000/svg" viewBox="0 0 64 64" width="64px" height="64px"><path d="M 31.75 2 C 28.246094 2 23.222656 3.105469 20.1875 5.222656 C 14.75 5.390625 10.515625 10.121094 9.84375 16.84375 C 9.328125 22.003906 9.796875 24.566406 10.074219 26.09375 C 10.125 26.367188 10.167969 26.597656 10.191406 26.800781 C 10.234375 27.136719 10.269531 27.558594 10.296875 28.003906 C 9.726563 27.859375 9.253906 27.902344 8.914063 27.996094 C 6.589844 28.617188 5.667969 32.171875 6.765625 36.265625 C 7.617188 39.457031 9.410156 41.800781 11.296875 42.3125 C 14.421875 52.152344 22.339844 61.914063 31.75 61.914063 C 41.164063 61.914063 49.078125 52.15625 52.203125 42.3125 C 54.089844 41.800781 55.882813 39.457031 56.738281 36.265625 C 57.222656 34.457031 57.324219 32.648438 57.019531 31.167969 C 56.667969 29.445313 55.804688 28.316406 54.589844 27.992188 C 54.210938 27.890625 53.671875 27.851563 53.019531 28.0625 C 52.96875 25.707031 52.636719 23.695313 52.003906 21.980469 C 51.753906 21.304688 51.828125 21.066406 51.824219 21.066406 C 52.105469 20.84375 53.574219 21.042969 54.96875 21.621094 C 55.316406 21.761719 55.707031 21.703125 55.992188 21.464844 C 56.277344 21.222656 56.40625 20.84375 56.328125 20.484375 C 53.800781 8.910156 45.210938 2 33.359375 2 Z M 31.75 4 L 33.359375 4 C 43.765625 4 51.179688 9.507813 53.941406 19.1875 C 52.738281 18.90625 51.285156 18.8125 50.4375 19.625 C 49.738281 20.296875 49.628906 21.324219 50.125 22.671875 C 50.90625 24.789063 51.179688 27.46875 50.960938 30.863281 C 50.925781 31.414063 51.34375 31.890625 51.894531 31.925781 C 51.917969 31.925781 51.9375 31.925781 51.957031 31.925781 C 52.480469 31.925781 52.921875 31.523438 52.953125 30.992188 C 52.972656 30.746094 52.980469 30.507813 52.988281 30.265625 C 53.046875 30.242188 53.105469 30.230469 53.160156 30.199219 C 53.417969 30.027344 53.789063 29.847656 54.074219 29.921875 C 54.503906 30.039063 54.875 30.65625 55.0625 31.566406 C 55.300781 32.734375 55.207031 34.257813 54.808594 35.75 C 53.992188 38.796875 52.324219 40.417969 51.4375 40.417969 L 51.433594 40.417969 C 50.992188 40.417969 50.601563 40.707031 50.472656 41.132813 C 47.699219 50.464844 40.378906 59.914063 31.75 59.914063 C 23.125 59.914063 15.804688 50.464844 13.03125 41.132813 C 12.902344 40.707031 12.511719 40.417969 12.070313 40.417969 L 12.066406 40.417969 C 11.179688 40.417969 9.511719 38.796875 8.695313 35.75 C 7.835938 32.542969 8.558594 30.160156 9.429688 29.925781 C 9.71875 29.847656 10.085938 30.03125 10.34375 30.199219 C 10.347656 30.203125 10.351563 30.199219 10.355469 30.203125 C 10.351563 30.464844 10.347656 30.703125 10.339844 30.882813 C 10.316406 31.433594 10.742188 31.902344 11.292969 31.929688 C 11.839844 31.945313 12.3125 31.527344 12.339844 30.976563 C 12.382813 30.03125 12.34375 27.832031 12.175781 26.546875 C 12.148438 26.3125 12.097656 26.046875 12.042969 25.734375 C 11.78125 24.308594 11.34375 21.925781 11.832031 17.046875 C 12.410156 11.257813 15.96875 7.21875 20.519531 7.21875 C 20.734375 7.21875 20.945313 7.148438 21.121094 7.015625 C 23.734375 5.058594 28.550781 4 31.75 4 Z M 31.550781 6.003906 C 31 6.046875 30.59375 6.527344 30.636719 7.078125 L 30.792969 9.015625 C 30.832031 9.539063 31.269531 9.933594 31.785156 9.933594 C 31.8125 9.933594 31.839844 9.933594 31.867188 9.929688 C 32.417969 9.886719 32.828125 9.40625 32.785156 8.851563 L 32.628906 6.921875 C 32.585938 6.371094 32.113281 5.953125 31.550781 6.003906 Z M 37.167969 6.273438 C 36.621094 6.183594 36.105469 6.550781 36.015625 7.097656 L 35.703125 9.007813 C 35.617188 9.554688 35.984375 10.066406 36.53125 10.15625 C 36.585938 10.164063 36.640625 10.171875 36.691406 10.171875 C 37.175781 10.171875 37.597656 9.820313 37.679688 9.328125 L 37.992188 7.421875 C 38.082031 6.875 37.710938 6.359375 37.167969 6.273438 Z M 42.144531 8.015625 C 41.753906 8.011719 41.382813 8.238281 41.21875 8.617188 L 40.457031 10.375 C 40.238281 10.882813 40.472656 11.472656 40.980469 11.6875 C 41.109375 11.746094 41.242188 11.773438 41.375 11.773438 C 41.761719 11.773438 42.132813 11.546875 42.296875 11.171875 L 43.050781 9.414063 C 43.273438 8.90625 43.039063 8.316406 42.53125 8.097656 C 42.40625 8.042969 42.273438 8.015625 42.144531 8.015625 Z M 46.542969 11.15625 C 46.289063 11.1875 46.046875 11.316406 45.875 11.535156 L 44.722656 13.019531 C 44.386719 13.457031 44.464844 14.085938 44.902344 14.421875 C 45.082031 14.566406 45.300781 14.632813 45.515625 14.632813 C 45.8125 14.632813 46.109375 14.5 46.304688 14.246094 L 47.457031 12.761719 C 47.796875 12.324219 47.714844 11.695313 47.28125 11.359375 C 47.0625 11.1875 46.796875 11.125 46.542969 11.15625 Z M 21.566406 15.632813 C 20.636719 15.550781 19.699219 15.980469 19.160156 16.796875 L 16.582031 20.710938 C 16.28125 21.171875 16.40625 21.792969 16.871094 22.09375 C 17.039063 22.207031 17.230469 22.261719 17.417969 22.261719 C 17.742188 22.261719 18.0625 22.101563 18.253906 21.8125 L 20.832031 17.894531 C 21 17.644531 21.328125 17.546875 21.609375 17.683594 L 24.121094 18.90625 C 28.683594 21.132813 33.511719 22.261719 38.464844 22.261719 C 39.019531 22.261719 39.464844 21.8125 39.464844 21.261719 C 39.464844 20.707031 39.019531 20.261719 38.464844 20.261719 C 33.820313 20.261719 29.285156 19.199219 25 17.109375 L 22.484375 15.886719 C 22.1875 15.742188 21.878906 15.660156 21.566406 15.632813 Z M 42.761719 20.261719 C 42.207031 20.261719 41.761719 20.710938 41.761719 21.261719 C 41.761719 21.8125 42.207031 22.261719 42.761719 22.261719 L 45.984375 22.261719 C 46.535156 22.261719 46.984375 21.8125 46.984375 21.261719 C 46.984375 20.710938 46.535156 20.261719 45.984375 20.261719 Z M 23 30 C 21.894531 30 21 30.894531 21 32 C 21 33.105469 21.894531 34 23 34 C 24.105469 34 25 33.105469 25 32 C 25 30.894531 24.105469 30 23 30 Z M 42 30 C 40.894531 30 40 30.894531 40 32 C 40 33.105469 40.894531 34 42 34 C 43.105469 34 44 33.105469 44 32 C 44 30.894531 43.105469 30 42 30 Z"/></svg>